<svg width="25" height="20" viewBox="0 0 25 20" fill="none" xmlns="http://www.w3.org/2000/svg">
<path d="M24.0996 7.05903V17.693C24.0996 18.2822 23.8898 18.7867 23.4701 19.2064C23.0505 19.626 22.546 19.8358 21.9568 19.8358H2.24247C1.65318 19.8358 1.14872 19.626 0.729074 19.2064C0.309431 18.7867 0.0996094 18.2822 0.0996094 17.693V7.05903C0.492467 7.49653 0.943359 7.88492 1.45229 8.22421C4.68443 10.4206 6.90318 11.9608 8.10854 12.8447C8.61747 13.2197 9.03041 13.5122 9.34738 13.722C9.66434 13.9318 10.0862 14.1461 10.613 14.3648C11.1398 14.5836 11.6309 14.693 12.0862 14.693H12.0996H12.113C12.5684 14.693 13.0594 14.5836 13.5862 14.3648C14.113 14.1461 14.5349 13.9318 14.8518 13.722C15.1688 13.5122 15.5818 13.2197 16.0907 12.8447C17.6085 11.7465 19.8318 10.2064 22.7603 8.22421C23.2693 7.87599 23.7157 7.4876 24.0996 7.05903ZM24.0996 3.12153C24.0996 3.82689 23.8809 4.50099 23.4434 5.14385C23.0059 5.78671 22.4612 6.33582 21.8094 6.79117C18.4523 9.12153 16.363 10.5724 15.5416 11.1439C15.4523 11.2064 15.2626 11.3425 14.9724 11.5523C14.6822 11.7622 14.4411 11.9318 14.2492 12.0613C14.0572 12.1907 13.8251 12.3358 13.5527 12.4965C13.2804 12.6572 13.0237 12.7778 12.7826 12.8581C12.5416 12.9385 12.3184 12.9787 12.113 12.9787H12.0996H12.0862C11.8809 12.9787 11.6576 12.9385 11.4166 12.8581C11.1755 12.7778 10.9188 12.6572 10.6465 12.4965C10.3742 12.3358 10.142 12.1907 9.95006 12.0613C9.75809 11.9318 9.51702 11.7622 9.22684 11.5523C8.93666 11.3425 8.74693 11.2064 8.65765 11.1439C7.84515 10.5724 6.6755 9.75769 5.14872 8.69965C3.62193 7.64162 2.70675 7.00546 2.40318 6.79117C1.84961 6.41617 1.32729 5.90055 0.836217 5.2443C0.345145 4.58805 0.0996094 3.97867 0.0996094 3.41617C0.0996094 2.71974 0.284877 2.13939 0.655413 1.6751C1.02595 1.21082 1.55497 0.978672 2.24247 0.978672H21.9568C22.5371 0.978672 23.0393 1.18849 23.4634 1.60814C23.8876 2.02778 24.0996 2.53224 24.0996 3.12153Z" fill="white"/>
</svg>
