<svg width="49" height="38" viewBox="0 0 49 38" fill="none" xmlns="http://www.w3.org/2000/svg">
<path d="M34.4992 13.9336H14.4992C14.0576 13.9336 13.6992 14.2167 13.6992 14.5669C13.6992 14.9172 14.0576 15.2003 14.4992 15.2003H34.4992C34.9408 15.2003 35.2992 14.9172 35.2992 14.5669C35.2992 14.2167 34.9408 13.9336 34.4992 13.9336Z" fill="#255442"/>
<path d="M14.4992 10.1339H22.4992C22.9408 10.1339 23.2992 9.85075 23.2992 9.50052C23.2992 9.15029 22.9408 8.86719 22.4992 8.86719H14.4992C14.0576 8.86719 13.6992 9.15029 13.6992 9.50052C13.6992 9.85075 14.0576 10.1339 14.4992 10.1339Z" fill="#255442"/>
<path d="M34.4992 19H14.4992C14.0576 19 13.6992 19.2831 13.6992 19.6333C13.6992 19.9836 14.0576 20.2667 14.4992 20.2667H34.4992C34.9408 20.2667 35.2992 19.9836 35.2992 19.6333C35.2992 19.2831 34.9408 19 34.4992 19Z" fill="#255442"/>
<path d="M34.4992 24.0664H14.4992C14.0576 24.0664 13.6992 24.3495 13.6992 24.6997C13.6992 25.05 14.0576 25.3331 14.4992 25.3331H34.4992C34.9408 25.3331 35.2992 25.05 35.2992 24.6997C35.2992 24.3495 34.9408 24.0664 34.4992 24.0664Z" fill="#255442"/>
<path d="M34.4992 29.1328H14.4992C14.0576 29.1328 13.6992 29.4159 13.6992 29.7661C13.6992 30.1164 14.0576 30.3995 14.4992 30.3995H34.4992C34.9408 30.3995 35.2992 30.1164 35.2992 29.7661C35.2992 29.4159 34.9408 29.1328 34.4992 29.1328Z" fill="#255442"/>
<path d="M31.6304 0H5.69922V38H43.2992V9.2378L31.6304 0ZM32.0992 2.1622L40.568 8.86667H32.0992V2.1622ZM7.29922 36.7333V1.26667H30.4992V10.1333H41.6992V36.7333H7.29922Z" fill="#255442"/>
</svg>
