<svg width="49" height="38" viewBox="0 0 49 38" fill="none" xmlns="http://www.w3.org/2000/svg">
<g clip-path="url(#clip0_310_863)">
<path d="M34.5744 0H14.4224C12.48 0 10.8984 1.2521 10.8984 2.78983V35.2095C10.8984 36.7479 12.48 38 14.4224 38H34.5736C36.5168 38 38.0984 36.7479 38.0984 35.2102V2.78983C38.0984 1.2521 36.5168 0 34.5744 0ZM12.4984 5.06667H36.4984V29.1333H12.4984V5.06667ZM14.4224 1.26667H34.5736C35.6352 1.26667 36.4984 1.95003 36.4984 2.78983V3.8H12.4984V2.78983C12.4984 1.95003 13.3616 1.26667 14.4224 1.26667ZM34.5744 36.7333H14.4224C13.3616 36.7333 12.4984 36.05 12.4984 35.2102V30.4H36.4984V35.2102C36.4984 36.05 35.6352 36.7333 34.5744 36.7333Z" fill="#255442"/>
<path d="M24.4988 31.0332C22.734 31.0332 21.2988 32.1694 21.2988 33.5665C21.2988 34.9637 22.734 36.0999 24.4988 36.0999C26.2636 36.0999 27.6988 34.9637 27.6988 33.5665C27.6988 32.1694 26.2636 31.0332 24.4988 31.0332ZM24.4988 34.8332C23.6164 34.8332 22.8988 34.2651 22.8988 33.5665C22.8988 32.868 23.6164 32.2999 24.4988 32.2999C25.3812 32.2999 26.0988 32.868 26.0988 33.5665C26.0988 34.2651 25.3812 34.8332 24.4988 34.8332Z" fill="#255442"/>
<path d="M21.3 3.16706H24.5C24.9424 3.16706 25.3 2.88396 25.3 2.53372C25.3 2.18349 24.9424 1.90039 24.5 1.90039H21.3C20.8576 1.90039 20.5 2.18349 20.5 2.53372C20.5 2.88396 20.8576 3.16706 21.3 3.16706Z" fill="#255442"/>
<path d="M26.8996 3.16706H27.6996C28.142 3.16706 28.4996 2.88396 28.4996 2.53372C28.4996 2.18349 28.142 1.90039 27.6996 1.90039H26.8996C26.4572 1.90039 26.0996 2.18349 26.0996 2.53372C26.0996 2.88396 26.4572 3.16706 26.8996 3.16706Z" fill="#255442"/>
<path d="M45.7896 2.89276C45.4768 2.64512 44.9712 2.64512 44.6584 2.89276C44.3456 3.14039 44.3456 3.54066 44.6584 3.78829C47.6472 6.15442 47.6472 10.0045 44.6584 12.3712C44.3456 12.6189 44.3456 13.0191 44.6584 13.2668C44.8144 13.3903 45.0192 13.4523 45.224 13.4523C45.4288 13.4523 45.6336 13.3903 45.7896 13.2668C49.4024 10.4073 49.4024 5.75289 45.7896 2.89276Z" fill="#255442"/>
<path d="M42.4205 4.33612C42.1077 4.08848 41.6021 4.08848 41.2893 4.33612C40.9765 4.58375 40.9765 4.98402 41.2893 5.23165C42.2789 6.01508 42.8237 7.05882 42.8237 8.16968C42.8237 9.28055 42.2789 10.3236 41.2893 11.1071C40.9765 11.3547 40.9765 11.755 41.2893 12.0026C41.4453 12.1261 41.6501 12.1882 41.8549 12.1882C42.0597 12.1882 42.2645 12.1261 42.4205 12.0026C43.7125 10.9804 44.4237 9.61875 44.4237 8.16968C44.4237 6.72062 43.7133 5.35832 42.4205 4.33612Z" fill="#255442"/>
<path d="M4.3408 3.78829C4.6536 3.54066 4.6536 3.14039 4.3408 2.89276C4.028 2.64512 3.5224 2.64512 3.2096 2.89276C-0.4032 5.75289 -0.4032 10.4066 3.2096 13.2668C3.3656 13.3903 3.5704 13.4523 3.7752 13.4523C3.98 13.4523 4.1848 13.3903 4.3408 13.2668C4.6536 13.0191 4.6536 12.6189 4.3408 12.3712C1.3512 10.0051 1.3512 6.15506 4.3408 3.78829Z" fill="#255442"/>
<path d="M7.71057 4.16033C7.39777 3.9127 6.89217 3.9127 6.57937 4.16033C5.28737 5.18253 4.57617 6.5442 4.57617 7.99327C4.57617 9.44233 5.28737 10.804 6.57937 11.8268C6.73537 11.9503 6.94017 12.0124 7.14497 12.0124C7.34977 12.0124 7.55457 11.9503 7.71057 11.8268C8.02337 11.5792 8.02337 11.1789 7.71057 10.9313C6.72097 10.1479 6.17617 9.10413 6.17617 7.99327C6.17617 6.8824 6.72017 5.8393 7.71057 5.05587C8.02257 4.80887 8.02257 4.40797 7.71057 4.16033Z" fill="#255442"/>
</g>
<defs>
<clipPath id="clip0_310_863">
<rect width="48" height="38" fill="white" transform="translate(0.5)"/>
</clipPath>
</defs>
</svg>
