<svg width="20" height="20" viewBox="0 0 20 20" fill="none" xmlns="http://www.w3.org/2000/svg">
<path d="M19.5183 15.1572C19.5183 15.3982 19.4736 15.713 19.3843 16.1014C19.2951 16.4898 19.2013 16.7956 19.1031 17.0188C18.9156 17.4652 18.371 17.9384 17.4692 18.4384C16.6299 18.8938 15.7995 19.1215 14.9781 19.1215C14.737 19.1215 14.5027 19.1058 14.275 19.0746C14.0473 19.0433 13.7906 18.9875 13.5049 18.9072C13.2192 18.8268 13.0071 18.7621 12.8687 18.713C12.7303 18.6639 12.4826 18.5724 12.1254 18.4384C11.7683 18.3045 11.5495 18.2241 11.4692 18.1974C10.5942 17.8849 9.81292 17.5143 9.12542 17.0857C7.98256 16.3804 6.80176 15.4183 5.58301 14.1996C4.36426 12.9808 3.4022 11.8 2.69685 10.6572C2.26828 9.96967 1.89774 9.18842 1.58524 8.31342C1.55845 8.23307 1.4781 8.01432 1.34417 7.65717C1.21024 7.30003 1.11872 7.05226 1.06961 6.91387C1.02051 6.77548 0.955776 6.56342 0.875419 6.27771C0.795061 5.992 0.739258 5.7353 0.708008 5.50762C0.676758 5.27994 0.661133 5.04557 0.661133 4.8045C0.661133 3.98307 0.888811 3.15271 1.34417 2.31342C1.84417 1.41164 2.31738 0.866995 2.76381 0.679495C2.98703 0.581282 3.29283 0.487532 3.68122 0.398245C4.06961 0.30896 4.38435 0.264317 4.62542 0.264317C4.75042 0.264317 4.84417 0.27771 4.90667 0.304495C5.06738 0.358067 5.30399 0.697353 5.61649 1.32235C5.7147 1.49199 5.84863 1.73307 6.01828 2.04557C6.18792 2.35807 6.34417 2.64155 6.48703 2.89601C6.62988 3.15048 6.76828 3.38932 6.9022 3.61253C6.92899 3.64825 7.00711 3.75985 7.13658 3.94735C7.26604 4.13485 7.36203 4.29333 7.42453 4.4228C7.48703 4.55226 7.51828 4.6795 7.51828 4.8045C7.51828 4.98307 7.39104 5.20628 7.13658 5.47414C6.88211 5.742 6.60533 5.98753 6.30622 6.21075C6.00711 6.43396 5.73033 6.67057 5.47586 6.92057C5.2214 7.17057 5.09417 7.37592 5.09417 7.53664C5.09417 7.617 5.11649 7.71744 5.16113 7.83798C5.20578 7.95851 5.24372 8.05003 5.27497 8.11253C5.30622 8.17503 5.36872 8.28217 5.46247 8.43396C5.55622 8.58575 5.60756 8.67057 5.61649 8.68842C6.29506 9.91164 7.07185 10.9607 7.94685 11.8357C8.82185 12.7107 9.87095 13.4875 11.0942 14.1661C11.112 14.175 11.1968 14.2264 11.3486 14.3201C11.5004 14.4139 11.6076 14.4764 11.6701 14.5076C11.7326 14.5389 11.8241 14.5768 11.9446 14.6215C12.0652 14.6661 12.1656 14.6884 12.246 14.6884C12.4067 14.6884 12.612 14.5612 12.862 14.3067C13.112 14.0523 13.3486 13.7755 13.5718 13.4764C13.7951 13.1773 14.0406 12.9005 14.3085 12.646C14.5763 12.3915 14.7995 12.2643 14.9781 12.2643C15.1031 12.2643 15.2303 12.2956 15.3598 12.3581C15.4893 12.4206 15.6477 12.5165 15.8352 12.646C16.0227 12.7755 16.1343 12.8536 16.1701 12.8804C16.3933 13.0143 16.6321 13.1527 16.8866 13.2956C17.141 13.4384 17.4245 13.5947 17.737 13.7643C18.0495 13.934 18.2906 14.0679 18.4602 14.1661C19.0852 14.4786 19.4245 14.7152 19.4781 14.8759C19.5049 14.9384 19.5183 15.0322 19.5183 15.1572Z" fill="white"/>
</svg>
