<svg width="49" height="38" viewBox="0 0 49 38" fill="none" xmlns="http://www.w3.org/2000/svg">
<g clip-path="url(#clip0_310_854)">
<path d="M24.5004 16.4663C27.5884 16.4663 30.1004 14.477 30.1004 12.0329C30.1004 9.58891 27.5884 7.59961 24.5004 7.59961C21.4124 7.59961 18.9004 9.58891 18.9004 12.0329C18.9004 14.477 21.4124 16.4663 24.5004 16.4663ZM24.5004 8.86628C26.706 8.86628 28.5004 10.2868 28.5004 12.0329C28.5004 13.779 26.706 15.1996 24.5004 15.1996C22.2948 15.1996 20.5004 13.779 20.5004 12.0329C20.5004 10.2868 22.2948 8.86628 24.5004 8.86628Z" fill="#255442"/>
<path d="M24.3592 34.6794L36.632 20.6467C41.2352 15.7884 40.5696 7.80267 35.2072 3.55807C32.3096 1.2635 28.4568 0 24.3592 0C20.2616 0 16.4088 1.2635 13.5112 3.55743C8.14881 7.80203 7.48321 15.7877 12.068 20.627L24.3592 34.6794ZM14.6424 4.45297C17.2384 2.39843 20.6888 1.26667 24.3592 1.26667C28.0296 1.26667 31.48 2.39843 34.076 4.45297C38.916 8.284 39.512 15.4964 35.3344 19.9057L24.3592 32.4539L13.3664 19.8867C9.20641 15.4964 9.80321 8.284 14.6424 4.45297Z" fill="#255442"/>
<path d="M34.1936 27.2374C33.7536 27.1949 33.3568 27.4445 33.3056 27.7922C33.2544 28.1399 33.568 28.4546 34.0064 28.4952C42.4192 29.2792 46.9 31.392 46.9 32.6163C46.9 34.3351 38.3784 36.7329 24.5 36.7329C10.6216 36.7329 2.1 34.3351 2.1 32.6163C2.1 31.392 6.5808 29.2792 14.9936 28.4952C15.432 28.4546 15.7456 28.1392 15.6944 27.7922C15.6424 27.4445 15.2456 27.1937 14.8064 27.2374C6.3832 28.0227 0.5 30.2343 0.5 32.6163C0.5 35.2915 8.744 37.9996 24.5 37.9996C40.256 37.9996 48.5 35.2915 48.5 32.6163C48.5 30.2343 42.6168 28.0227 34.1936 27.2374Z" fill="#255442"/>
</g>
<defs>
<clipPath id="clip0_310_854">
<rect width="48" height="38" fill="white" transform="translate(0.5)"/>
</clipPath>
</defs>
</svg>
