<svg width="1440" height="1154" viewBox="0 0 1440 1154" fill="none" xmlns="http://www.w3.org/2000/svg">
<rect y="54" width="1440" height="851" fill="#255442"/>
<path d="M122.84 688.652C93.1575 700.012 47.7118 571.242 47.7118 571.242C47.7118 571.242 9.39305 584.107 -32.2066 657.927C-85.8538 753.085 -62.1548 907.934 43.9215 923.691C57.2481 925.87 70.8807 925.01 83.8087 921.176C96.7367 917.341 108.628 910.631 118.603 901.542C104.525 900.33 90.7105 896.937 77.651 891.482C55.1261 881.956 34.8126 867.819 18.0113 849.975C36.5007 862.726 56.3 873.439 77.0648 881.928C93.2388 887.554 110.285 890.185 127.373 889.693L136.572 875.622C104.969 861.828 74.9081 844.693 46.9008 824.508C28.8475 812.985 13.9624 797.086 3.62221 778.284C16.3968 795.331 32.4092 809.671 50.7285 820.47C81.0915 837.364 113.416 850.406 146.955 859.296C154.713 846.806 162.659 833.471 171.103 819.432C155.069 808.283 140.444 795.214 127.551 780.517C111.795 761.752 99.5814 740.262 91.5136 717.111C105.072 736.992 119.867 755.997 135.808 774.012C147.945 787.316 163.007 797.592 179.786 804.014C195.404 777.965 210.592 750.794 225.694 723.398C213.566 713.52 202.983 701.868 194.299 688.837C185.743 676.815 180.977 662.5 180.622 647.752C186.657 660.689 194.305 672.808 203.381 683.817C211.805 694.023 222.591 702.002 234.789 707.05C255.211 670.156 348.122 496.41 348.122 496.41L271.227 654.505C296.314 655.56 321.433 653.968 346.17 649.754C363.561 645.859 380.146 638.989 395.2 629.445C395.2 629.445 378.239 639.282 352.196 650.793C324.192 660.079 295.073 665.599 265.598 667.21L218.545 764.219C242.527 769.368 266.87 772.614 291.345 773.926C328.149 774.33 364.925 772.122 401.399 767.317C368.931 777.067 335.391 782.819 301.512 784.446C271.395 785.101 241.266 783.293 211.423 779.039L178.836 846.323C209.333 860.375 240.891 871.961 273.207 880.97C309.295 885.516 345.624 887.77 381.977 887.719C345.771 895.668 308.364 896.624 271.75 890.534C228.121 881.499 186.842 869.248 170.032 864.102L159.307 886.22C178.967 908.229 202.087 926.853 227.741 941.345C262.857 957.676 299.378 970.745 336.845 980.389C297.961 975.791 259.829 966.073 223.434 951.485C198.528 938.301 175.219 922.266 153.972 903.702C152.382 907.57 151.044 911.428 149.957 915.274C153.082 931.896 160.043 947.564 170.28 961.021C181.911 973.409 195.685 983.572 210.928 991.011C192.903 987.065 176.407 977.9 163.482 964.652C155.888 957.026 149.514 948.267 144.589 938.687C126.764 1059.25 286.139 1095.27 387.917 1021.57C467.997 963.389 513.669 832.684 513.669 832.684C484.92 847.125 453.921 856.553 421.992 860.566C377.352 864.27 294.252 861.078 284.662 823.318C275.072 785.559 436.049 845.15 504.493 804.03C562.328 769.286 523.629 637.419 523.629 637.419C522.84 648.676 519.591 659.611 514.113 669.446C508.634 679.282 501.061 687.776 491.932 694.326C462.287 719.825 335.444 736.72 319.126 710.799C299.407 676.658 460.377 702.8 488.392 618.224C504.433 569.883 448.401 534.458 420.818 500.497C403.504 477.788 391.999 451.172 387.318 422.995C387.318 422.995 366.012 428.833 318.474 443.682C270.936 458.531 228.695 441.76 208.805 475.363C188.914 508.966 236.596 588.759 208.868 589.85C181.14 590.941 181.936 482.043 181.936 482.043C181.936 482.043 159.618 490.585 109.146 512.476C58.6736 534.366 151.098 677.579 122.84 688.652Z" fill="#FFFFEC" fill-opacity="0.03"/>
<path d="M154.548 96.6665C158.237 94.0422 161.744 91.172 165.046 88.0757C166.753 89.8872 168.553 91.7544 170.445 93.6773C162.432 102.93 155.434 113.01 149.571 123.743C145.248 134.275 133.091 168.008 133.091 168.008C133.091 168.008 147.197 149.199 153.996 138.239C159.643 129.387 170.423 105.573 174.094 97.3859L180.204 103.74C172.855 115.513 166.361 127.794 160.773 140.488C157.571 151.9 155.496 163.592 154.578 175.399C154.578 175.399 158.464 152.337 164.973 144.407C171.482 136.477 177.003 131.445 180.391 121.405C182.459 115.187 183.663 110.55 184.284 107.909L192.294 116.202C184.518 124.937 177.755 134.519 172.137 144.764C167.739 155.273 153.841 187.608 153.841 187.608C159.686 178.3 166.141 169.385 173.165 160.924C181.073 152.07 192.331 127.254 195.765 119.692C197.033 121.026 198.376 122.383 199.771 123.838C192.572 133.812 186.397 144.481 181.34 155.682C177.456 167.046 166.675 206.497 166.675 206.497C171.952 196.033 177.867 185.901 184.388 176.157C191.652 166.078 201.023 136.126 203.621 127.691L210.284 134.379C206.06 142.085 202.262 150.014 198.906 158.131C195.364 168.744 190.982 179.061 185.8 188.986C180.603 197.977 170.929 211.951 170.929 211.951C170.929 211.951 198.569 180.889 204.299 167.302C208.024 157.327 210.717 147.002 212.337 136.488C215.25 139.395 218.214 142.401 221.228 145.38C214.324 156.049 209.051 167.679 205.582 179.887C202.934 198.077 201.333 216.4 200.786 234.765C202.719 222.831 205.332 211.013 208.612 199.371C212.547 186.791 221.487 155.064 223.633 147.68L230.471 154.463C227.142 161.032 216.252 182.964 214.158 195.701C211.687 210.824 207.73 241.867 207.73 241.867C207.73 241.867 217.9 213.434 223.771 196.77C227.844 183.88 231.113 170.753 233.56 157.466C235.864 159.693 238.067 161.848 240.242 163.831C237.088 176.96 234.776 190.274 233.321 203.69C232.361 218.581 234.166 249.468 234.166 249.468C234.166 249.468 239.237 222.092 241.162 204.378C242.716 189.424 242.827 171.727 243.024 166.37C246.337 169.442 249.522 172.269 252.604 174.9C249.504 185.03 247.757 195.519 247.407 206.095C247.087 223.276 248.87 243.854 248.87 243.854C251.615 232.048 253.497 220.062 254.5 207.99C255.151 196.452 255.375 183.386 255.407 177.24C257.882 179.314 260.279 181.242 262.599 183.023C261.076 192.97 260.419 203.026 260.636 213.079C261.413 226.493 264.421 246.176 264.421 246.176C264.412 236.995 265.11 227.824 266.509 218.744C267.62 207.622 267.273 196.408 265.477 185.386C268.226 187.505 270.846 189.378 273.34 191.13C272.105 199.292 271.903 207.573 272.74 215.777C274.444 223.074 279.397 245.736 279.397 245.736L278.828 215.762C278.361 207.931 277.233 200.156 275.453 192.519C277.694 194.03 279.808 195.419 281.844 196.661C281.154 202.154 279.241 219.173 281.01 223.37C283.145 228.501 287.323 249.57 287.323 249.57C287.323 249.57 285.482 232.463 284.996 221.272C284.768 213.198 284.38 203.27 284.162 198.318C285.997 199.416 287.705 200.394 289.313 201.299C289.7 204.66 290.983 217.245 291.37 223.233C292.297 230.503 293.637 237.712 295.384 244.826C295.384 244.826 294.978 233.907 294.384 226.213C294.02 220.15 292.257 207.13 291.699 202.607C293.004 203.296 294.234 203.962 295.413 204.53C295.501 211.688 296.169 218.825 297.409 225.871C299.13 232.722 304.68 246.25 304.68 246.25C304.68 246.25 303.264 234.486 301.081 224.251C299.466 216.407 297.949 208.512 297.443 205.401L300.55 206.767C301.137 211.802 302.53 216.707 304.678 221.295C308.494 228.543 313.31 238.768 313.31 238.768C313.45 232.385 312.255 226.048 309.8 220.162C307.793 215.505 305.143 211.153 301.926 207.231C304.059 208.101 306.258 208.805 308.501 209.337C309.538 213.118 311.385 216.627 313.915 219.622C317.134 223.495 320.582 227.174 324.239 230.638C324.394 226.62 323.083 222.688 320.55 219.57C316.685 216.288 314.834 214.322 314.834 214.322C318.155 216.444 321.791 218.034 325.609 219.033C330.383 219.813 335.272 219.584 339.96 218.359C334.154 215.504 328.096 213.187 321.861 211.436C317.875 210.907 313.23 209.725 310.713 209.361C313.313 209.258 315.9 208.942 318.449 208.416C322.122 207.626 325.662 206.31 328.961 204.509C325.242 203.777 321.4 203.916 317.736 204.913C312.377 206.671 312.532 206.965 308.506 208.271C306.746 207.196 302.04 205.42 298.741 203.091C303.836 203.662 308.991 203.478 314.038 202.544C322.404 200.767 336.3 197.08 336.3 197.08C328.266 197.017 320.245 197.781 312.362 199.361C307.846 200.736 303.241 201.801 298.581 202.55C297.02 201.495 295.284 200.345 293.444 198.999C298.371 199.159 303.303 198.805 308.16 197.945C315.09 196.424 315.223 195.603 323.732 193.501C330.271 192.078 336.908 191.156 343.585 190.744C343.585 190.744 330.747 186.055 325.093 187.968C319.438 189.881 312.795 189.438 305.193 192.189C300.297 193.975 295.285 195.422 290.191 196.52C288.455 195.37 286.641 194.073 284.752 192.754C291.811 191.747 298.779 190.171 305.587 188.041C315.365 184.77 335.916 175.578 335.916 175.578C335.916 175.578 313.685 180.025 306.627 182.615C300.553 184.686 285.783 189.459 281.338 190.923C278.994 189.217 276.447 187.243 274.054 185.563C282.908 185.143 291.724 184.097 300.435 182.434C311.149 179.984 333.235 173.112 333.235 173.112C321.171 173.07 309.127 174.174 297.264 176.41C288.416 178.941 275.877 182.101 271.103 183.3C268.38 181.231 265.606 179.064 262.805 176.848C273.492 177.084 284.186 176.575 294.808 175.326C303.917 173.408 328.198 165.693 328.198 165.693C316.123 166.092 304.074 167.111 292.099 168.746C284.453 170.456 265.153 173.548 260.098 174.332C257.574 172.283 254.973 170.087 252.421 167.866C263.172 165.844 274.034 164.471 284.946 163.754C294.367 163.862 293.898 161.419 303.616 160.181C313.334 158.944 327.682 158.146 327.682 158.146C327.682 158.146 311.847 153.972 304.618 155.4C297.389 156.829 289.527 153.712 280.861 155.396C269.992 157.663 259.375 161.01 249.168 165.387C246.665 163.14 244.162 160.892 241.708 158.618C247.686 158.036 269.882 155.671 277.676 153.883C286.682 151.77 315.132 142.423 315.132 142.423C315.132 142.423 298.487 145.305 290.574 146.03C282.66 146.756 276.349 142.885 265.734 146.597C257.584 149.26 244.555 154.117 239.053 156.2C237.712 154.967 236.421 153.708 235.153 152.374C233.885 151.04 232.519 149.757 231.099 148.253C239.171 147.231 247.157 145.599 254.987 143.372C267.664 139.638 272.076 133.813 283.022 131.804C291.934 130.529 300.932 129.976 309.929 130.15C309.929 130.15 292.524 124.426 283.465 127.631C274.405 130.836 265.552 135.746 259.021 135.994C253.12 135.553 247.199 136.644 241.835 139.161C237.456 141.467 232.2 144.734 229.573 146.429C226.381 143.231 223.035 139.738 219.512 136.151C231.745 135.643 243.927 134.248 255.963 131.975C269.724 127.442 283.163 121.977 296.183 115.619C296.183 115.619 274.365 120.849 263.707 122.331C253.049 123.813 243.671 123.308 235.561 126.765C229.621 129.329 221.483 132.612 217.586 134.163L210.74 127.008C217.655 126.057 236.564 123.297 246.171 121.492C258.031 119.19 290.807 109.942 290.807 109.942C280.542 111.933 270.154 113.221 259.718 113.798C249.623 112.812 239.425 113.665 229.622 116.318C221.842 118.85 212.099 122.665 207.881 124.322C205.144 121.51 202.455 118.672 199.821 116.055C210.941 115.392 221.986 113.764 232.83 111.189C246.993 107.174 277.064 90.2812 277.064 90.2812C268.41 94.1923 259.264 96.9023 249.881 98.3352C238.223 99.4683 220.465 101.31 211.893 105.322C206.129 107.981 199.975 111.095 196.58 112.883L191.483 107.497C200.474 105.377 209.35 102.792 218.075 99.754C231.8 94.9061 273.102 77.9804 273.102 77.9804C273.102 77.9804 241.249 83.4892 228.056 86.2433C214.863 88.9974 208.839 92.3563 188.413 104.172C186.308 101.965 184.204 99.7576 182.2 97.6224C189.649 96.7747 196.837 94.3553 203.287 90.5251C219.294 82.1452 234.519 72.3513 248.779 61.2615C240.459 65.4226 231.919 69.1251 223.195 72.3522C215.193 74.9384 185.815 90.4028 178.729 94.1329C176.929 92.2657 175.204 90.4215 173.505 88.6264C180.887 88.1546 188.058 85.9444 194.431 82.177C207.584 74.6905 217.799 49.9233 217.799 49.9233C217.799 49.9233 205.334 71.3714 197.273 74.8015C189.212 78.2317 187.351 75.7711 181.821 78.9949C178.159 81.2008 174.62 83.6063 171.222 86.2002C169.244 84.114 168.431 83.1661 166.58 81.2009C174.407 78.56 181.378 73.8532 186.748 67.582C191.048 62.8632 193.903 57.0181 194.976 50.7409C190.982 55.2106 186.41 59.1318 181.381 62.4009C175.033 67.1991 169.378 72.849 164.578 79.1896C150.932 64.6065 141.342 54.2679 141.342 54.2679L139.852 62.1826C139.852 62.1826 148.453 71.478 162.854 86.5396C154.584 89.7617 146.83 94.1805 139.844 99.6533C131.241 108.041 123.445 117.213 116.557 127.048C122.386 120.572 128.619 114.47 135.221 108.779C140.779 103.101 147.314 101.788 154.548 96.6665Z" fill="#FFFFEC" fill-opacity="0.15"/>
<path d="M1450.34 873.824C1457.32 868.056 1464.68 862.766 1472.37 857.991C1469.75 853.754 1467.08 849.311 1464.34 844.66C1442.32 855.35 1419.22 863.652 1395.45 869.424C1372.87 872.323 1301.41 878.346 1301.41 878.346C1301.41 878.346 1345.05 860.833 1369.74 853.371C1389.76 847.044 1441.35 838.546 1459.06 835.691L1449.95 820.599C1423.4 828.702 1396.32 834.89 1368.9 839.113C1345.2 839.394 1321.54 837.35 1298.25 833.01C1298.25 833.01 1344.82 837.442 1363.51 828.972C1382.19 820.502 1394.77 812.442 1415.92 811.094C1429.01 810.317 1438.59 810.391 1444.01 810.559L1432.14 790.791C1411.24 801.293 1389.22 809.397 1366.52 814.948C1343.95 818.003 1274.28 828.114 1274.28 828.114C1295.29 821.641 1315.86 813.785 1335.84 804.597C1357.04 793.903 1410.8 785 1427.19 782.28C1425.27 779.14 1423.34 775.843 1421.25 772.396C1398.26 781.139 1374.45 787.545 1350.2 791.517C1326.23 793.138 1244.44 793.543 1244.44 793.543C1267.38 788.767 1290.02 782.584 1312.22 775.029C1335.45 766.214 1398.16 763.615 1415.8 762.963L1406.33 746.629C1389.26 750.8 1371.98 754.033 1354.56 756.313C1332.22 757.663 1310.02 760.789 1288.17 765.661C1268.11 771.046 1236.1 782.502 1236.1 782.502C1236.1 782.502 1310.42 745.186 1339.63 741.148C1360.83 739.117 1382.17 739.259 1403.32 741.572C1399.21 734.439 1394.94 727.156 1390.74 719.791C1366.56 727.606 1341.36 731.773 1315.98 732.155C1279.47 727.855 1243.25 721.464 1207.49 713.015C1231.54 715.458 1255.72 716.527 1279.91 716.217C1306.25 715.126 1372.17 714.279 1387.55 713.956L1377.98 697.234C1363.57 700.265 1315.56 709.95 1289.87 707.402C1259.38 704.347 1197.36 695.923 1197.36 695.923C1197.36 695.923 1257.55 690.995 1292.78 688.278C1319.79 687.082 1346.85 687.561 1373.78 689.712C1370.67 684.108 1367.65 678.737 1364.94 673.509C1337.95 672.806 1311.03 670.381 1284.36 666.247C1255.1 660.393 1196.36 640.918 1196.36 640.918C1196.36 640.918 1251.87 645.292 1287.09 650.743C1316.78 655.481 1351.03 664.427 1361.48 666.821C1357.26 658.829 1353.45 651.213 1349.96 643.898C1328.78 644.642 1307.62 642.588 1287 637.79C1253.65 629.514 1214.82 615.418 1214.82 615.418C1239.05 616.226 1263.18 618.796 1287.02 623.105C1309.64 627.822 1335 634.152 1346.89 637.272C1344.16 631.417 1341.68 625.787 1339.44 620.383C1319.44 618.178 1299.67 614.241 1280.36 608.618C1254.85 600.174 1218.38 584.174 1218.38 584.174C1236.11 588.944 1254.19 592.342 1272.46 594.34C1294.52 597.951 1316 604.426 1336.36 613.6C1333.7 607.193 1331.43 601.162 1329.34 595.438C1312.93 593.599 1296.83 589.702 1281.41 583.839C1268.2 576.77 1226.98 555.469 1226.98 555.469L1284.59 572.085C1299.48 577.04 1313.92 583.245 1327.75 590.635C1325.99 585.525 1324.4 580.723 1323.06 576.145C1312.09 574.637 1278.22 569.522 1271.03 563.931C1262.22 557.15 1223.68 538.173 1223.68 538.173C1223.68 538.173 1255.78 550.585 1277.14 557.317C1292.62 561.937 1311.6 567.825 1321.05 570.81C1319.88 566.697 1318.88 562.891 1317.96 559.316C1311.67 556.829 1288.02 547.836 1276.65 543.988C1263.09 538.434 1249.86 532.113 1237.02 525.057C1237.02 525.057 1257.9 531.494 1272.46 536.623C1283.98 540.465 1308.22 550.611 1316.67 554.03C1316.01 551.152 1315.36 548.43 1314.88 545.859C1301.09 541.984 1287.65 537 1274.68 530.956C1262.34 524.086 1239.08 506.361 1239.08 506.361C1239.08 506.361 1261.07 515.186 1279.71 524.701C1294.03 531.882 1308.5 538.899 1314.25 541.488L1313.21 534.777C1303.79 531.038 1295.04 525.806 1287.29 519.283C1275.26 508.159 1258 493.562 1258 493.562C1270.4 496.595 1282.03 502.184 1292.13 509.973C1300.08 516.262 1307.12 523.635 1313.03 531.879C1312.45 527.307 1312.23 522.696 1312.37 518.086C1305.6 514.126 1299.78 508.742 1295.3 502.303C1289.48 494.08 1284.16 485.516 1279.36 476.657C1287.21 478.439 1294.12 483.006 1298.83 489.514C1303.17 498.679 1306.01 503.273 1306.01 503.273C1303.63 495.758 1302.44 487.912 1302.49 480.018C1303.45 470.391 1306.43 461.065 1311.22 452.643C1313.73 465.338 1315.07 478.24 1315.23 491.191C1314.18 499.165 1314.07 508.75 1313.47 513.8C1315.01 508.832 1316.96 503.998 1319.29 499.346C1322.72 492.66 1327.1 486.501 1332.28 481.061C1331.77 488.625 1329.52 495.975 1325.69 502.536C1319.52 511.979 1319.03 511.528 1314.43 518.629C1315.59 522.586 1316.59 532.596 1319.38 540.176C1320.91 530.037 1323.94 520.173 1328.35 510.906C1336.12 495.665 1350.43 470.728 1350.43 470.728C1346.4 486.281 1340.77 501.382 1333.64 515.791C1328.64 523.805 1324.2 532.149 1320.34 540.764C1321.57 544.325 1322.9 548.275 1324.54 552.526C1326.79 542.925 1330.02 533.58 1334.2 524.642C1340.72 512.043 1342.38 512.21 1350.84 496.861C1356.98 484.964 1362.19 472.62 1366.45 459.935C1366.45 459.935 1368.86 487.162 1362.24 497.095C1355.61 507.028 1353.03 520.092 1343.78 533.354C1337.8 541.887 1332.41 550.821 1327.65 560.093C1328.97 564.043 1330.54 568.218 1332.11 572.55C1337.71 559.434 1344.36 546.79 1352 534.741C1363.38 517.543 1391.77 482.6 1391.77 482.6C1391.77 482.6 1371.67 523.246 1363.02 535.54C1355.87 546.202 1339.01 572.265 1333.88 580.094C1335.96 585.505 1338.46 591.448 1340.46 596.94C1345.86 580.052 1352.44 563.562 1360.16 547.595C1370.44 528.166 1395.15 489.057 1395.15 489.057C1388.99 512.383 1380.62 535.08 1370.16 556.839C1360.69 572.623 1348.09 595.21 1343.31 603.811C1345.89 610.143 1348.64 616.625 1351.48 623.182C1356.55 602.414 1363.07 582.018 1370.98 562.145C1379.4 545.541 1406.88 502.627 1406.88 502.627C1399.85 525.748 1391.65 548.497 1382.29 570.785C1375.03 584.671 1359.07 620.355 1354.93 629.714C1357.59 635.65 1360.48 641.813 1363.45 647.893C1372.92 628.169 1381.2 607.897 1388.23 587.186C1392.9 568.932 1397.38 571.102 1404.8 552.97C1412.22 534.837 1421.19 507.531 1421.19 507.531C1421.19 507.531 1421.06 540.281 1414.55 553.508C1408.05 566.734 1410 583.536 1402.26 599.405C1392.26 619.228 1380.3 638.007 1366.56 655.46C1369.6 661.459 1372.65 667.458 1375.77 673.375C1379.99 662.128 1396.05 620.472 1403.54 606.341C1412.28 590.038 1445.07 539.915 1445.07 539.915C1445.07 539.915 1430.88 570.578 1425.38 585.49C1419.89 600.402 1424.1 614.598 1411.43 633.184C1402.07 647.549 1385.94 670.205 1379.07 679.756C1380.76 682.984 1382.52 686.13 1384.44 689.27C1386.36 692.41 1388.13 695.714 1390.3 699.236C1396.46 684.17 1403.74 669.588 1412.1 655.614C1425.87 633.056 1439.41 627.548 1448.96 607.443C1456.03 590.886 1461.76 573.788 1466.08 556.319C1466.08 556.319 1468.13 592.906 1457.25 608.748C1446.37 624.59 1432.3 639.151 1428.44 651.639C1426.24 663.267 1421.07 674.141 1413.43 683.201C1406.71 690.468 1397.67 698.93 1393.04 703.127C1397.56 710.949 1402.58 719.222 1407.69 727.884C1415 704.516 1424 681.703 1434.62 659.628C1450.5 635.39 1468.02 612.258 1487.04 590.395C1487.04 590.395 1465.64 629.838 1457.26 649.66C1448.88 669.481 1445 687.86 1434.13 701.739C1426.1 711.887 1415.54 725.909 1410.53 732.635L1420.81 749.563C1426.22 736.696 1441.35 701.597 1449.81 683.97C1460.39 662.251 1495.22 603.719 1495.22 603.719C1486.06 622.521 1478.2 641.921 1471.68 661.783C1468.36 681.796 1461.43 701.055 1451.23 718.62C1442.32 732.339 1429.9 749.186 1424.52 756.477C1428.53 763.221 1432.62 769.883 1436.32 776.326C1443.35 755.188 1452.22 734.694 1462.8 715.078C1477.89 689.795 1526.09 640.447 1526.09 640.447C1514.06 655.14 1504.09 671.406 1496.46 688.79C1488.24 710.726 1475.49 744.078 1463.3 758.561C1455.18 768.32 1445.98 778.596 1440.77 784.23L1448.53 796.865C1457.28 780.593 1466.87 764.784 1477.26 749.501C1493.73 725.497 1547.8 654.467 1547.8 654.467C1547.8 654.467 1520.67 713.151 1508.52 737.212C1496.37 761.273 1486.77 771.173 1453.37 804.517C1456.54 809.725 1459.72 814.933 1462.8 819.91C1468.3 805.958 1476.69 793.324 1487.43 782.846C1511.9 756.262 1538.71 731.919 1567.51 710.111C1555.17 724.029 1543.59 738.612 1532.84 753.794C1523.7 767.915 1478.62 816.663 1467.75 828.421C1470.42 832.865 1473.09 837.152 1475.68 841.363C1480.41 827.347 1488.4 814.637 1498.97 804.276C1520.24 782.743 1573.38 775.829 1573.38 775.829C1573.38 775.829 1525.49 788.807 1514.69 802.604C1503.89 816.401 1507.68 821.27 1498.59 830.284C1492.44 836.217 1485.96 841.807 1479.19 847.029C1482.19 851.93 1483.6 853.992 1486.44 858.586C1495.6 844.832 1508.3 833.802 1523.19 826.673C1534.53 820.81 1547.3 818.319 1559.99 819.495C1549.28 824.898 1539.34 831.701 1530.42 839.723C1517.87 849.504 1504.02 857.504 1489.29 863.493C1510.4 897.406 1525.41 921.284 1525.41 921.284L1509.35 920.065C1509.35 920.065 1495.84 898.637 1474.2 863.019C1463.69 877.328 1451.14 890.02 1436.96 900.685C1416.3 912.961 1394.54 923.275 1371.98 931.489C1387.51 923.582 1402.52 914.698 1416.93 904.891C1430.78 897.093 1436.7 885.147 1450.34 873.824Z" fill="#FFFFEC" fill-opacity="0.07"/>
<path d="M1455.5 896.786C1457.31 890.24 1459.55 883.824 1462.22 877.582C1458.79 876.104 1455.24 874.525 1451.56 872.845C1442.63 888.886 1432.01 903.922 1419.89 917.693C1407.26 929.189 1365.95 963.63 1365.95 963.63C1365.95 963.63 1385.23 934.099 1397.19 918.892C1406.77 906.391 1434.8 878.98 1444.46 869.604L1432.37 864.252C1419.54 880.651 1405.56 896.104 1390.54 910.493C1376.1 920.862 1360.68 929.785 1344.51 937.135C1344.51 937.135 1375.02 919.827 1382.86 906.584C1390.7 893.34 1394.96 882.977 1407.37 873.051C1415.08 866.946 1420.99 862.87 1424.4 860.64L1408.6 853.603C1400.28 869.046 1390.24 883.494 1378.68 896.67C1366.12 908.259 1327.68 944.438 1327.68 944.438C1337.8 931.424 1347.05 917.752 1355.38 903.511C1363.8 887.822 1393 859.222 1401.9 850.501C1399.37 849.399 1396.77 848.202 1394 846.983C1383.63 862.246 1371.76 876.423 1358.57 889.298C1344.54 900.603 1294.47 936.039 1294.47 936.039C1306.51 923.233 1317.76 909.697 1328.15 895.506C1338.63 880.097 1376.04 851.522 1386.59 843.532L1373.75 837.572C1365.05 847.479 1355.83 856.9 1346.11 865.794C1332.96 876.232 1320.67 887.703 1309.34 900.098C1299.33 912.035 1284.6 932.841 1284.6 932.841C1284.6 932.841 1314.2 877.946 1330.41 862.898C1342.56 852.53 1355.73 843.437 1369.72 835.76C1364.13 833.146 1358.37 830.509 1352.63 827.789C1341.13 842.994 1327.44 856.394 1312.02 867.546C1287.73 880.61 1262.73 892.268 1237.12 902.461C1252.95 893.613 1268.27 883.868 1283 873.272C1298.71 861.27 1338.84 832.393 1348.15 825.58L1335.08 819.42C1327.53 827.483 1302.2 854.085 1285.33 863.571C1265.28 874.813 1223.55 896.317 1223.55 896.317C1223.55 896.317 1258.41 867.394 1278.89 850.57C1294.97 838.216 1311.79 826.873 1329.27 816.607C1324.94 814.502 1320.78 812.503 1316.87 810.455C1299.98 821.636 1282.4 831.725 1264.23 840.659C1243.74 849.651 1199.27 862.953 1199.27 862.953C1199.27 862.953 1235.26 841.761 1259.24 829.96C1279.52 820.097 1304.41 810.862 1311.86 807.836C1305.83 804.741 1300.21 801.702 1294.92 798.708C1282.23 808.275 1268.34 816.119 1253.62 822.038C1229.56 831.303 1199.64 839.347 1199.64 839.347C1214.88 829.421 1230.81 820.619 1247.31 813.012C1263.24 806.175 1281.54 799.157 1290.19 795.958C1285.99 793.534 1282.04 791.144 1278.34 788.787C1265.1 796.038 1251.27 802.123 1236.99 806.974C1217.68 812.761 1188.39 818.619 1188.39 818.619C1201.34 813.922 1213.91 808.233 1225.99 801.603C1241.09 794.331 1257.08 789.066 1273.54 785.943C1269.14 783.155 1265.16 780.423 1261.41 777.807C1250.54 783.736 1238.97 788.268 1226.97 791.298C1215.81 792.639 1181.33 797.283 1181.33 797.283L1223.87 782.709C1235.15 779.349 1246.69 776.951 1258.36 775.54C1255.09 773.157 1252.04 770.89 1249.25 768.657C1241.86 772.449 1218.85 783.877 1212.03 783.536C1203.7 783.158 1171.86 788.078 1171.86 788.078C1171.86 788.078 1196.92 781.897 1212.94 776.841C1224.44 773.02 1238.63 768.473 1245.72 766.24C1243.23 764.217 1240.98 762.311 1238.88 760.509C1233.94 761.688 1215.54 766.336 1206.91 768.862C1196.18 771.285 1185.33 773.094 1174.41 774.283C1174.41 774.283 1190.01 769.254 1201.16 766.143C1209.89 763.545 1229.15 759.351 1235.81 757.817C1234.17 756.331 1232.6 754.938 1231.19 753.568C1221.06 757.117 1210.66 759.837 1200.09 761.704C1189.55 762.793 1167.63 761.91 1167.63 761.91C1167.63 761.91 1184.94 757.871 1200.49 755.697C1212.37 753.949 1224.28 752.037 1228.93 751.154L1225.41 747.475C1218.01 749.231 1210.38 749.783 1202.81 749.11C1190.64 747.45 1173.75 745.907 1173.75 745.907C1182.68 742.435 1192.22 740.868 1201.78 741.309C1209.37 741.748 1216.87 743.252 1224.05 745.775C1221.73 743.213 1219.61 740.476 1217.7 737.586C1211.84 738.065 1205.95 737.261 1200.43 735.231C1193.32 732.681 1186.37 729.709 1179.61 726.331C1185.19 724.052 1191.41 723.882 1197.1 725.854C1203.71 729.617 1207.43 731.218 1207.43 731.218C1202.73 727.626 1198.63 723.316 1195.26 718.447C1191.71 712.118 1189.53 705.109 1188.85 697.873C1195.85 704.592 1202.23 711.942 1207.89 719.832C1210.68 725.179 1214.73 731.119 1216.54 734.48C1215.35 730.764 1214.46 726.955 1213.9 723.092C1213.13 717.51 1213.17 711.844 1214.01 706.271C1216.95 711.138 1218.73 716.624 1219.2 722.3C1219.47 730.756 1218.98 730.688 1219.2 737.033C1221.62 738.962 1226.54 744.684 1231.52 748.14C1228.1 741.251 1225.71 733.89 1224.44 726.297C1222.65 713.594 1220.72 692.115 1220.72 692.115C1224.93 703.406 1227.97 715.105 1229.79 727.026C1230.16 734.097 1231.02 741.134 1232.36 748.087C1234.65 749.746 1237.16 751.603 1240 753.506C1237.25 746.643 1235.22 739.51 1233.94 732.222C1232.53 721.675 1233.61 721.065 1232.21 707.994C1230.86 698.046 1228.76 688.218 1225.91 678.596C1225.91 678.596 1239.11 694.285 1239.31 703.237C1239.52 712.189 1243.55 721.325 1243.57 733.451C1243.57 741.269 1244.1 749.077 1245.16 756.819C1247.68 758.677 1250.43 760.568 1253.26 762.554C1251.06 752.087 1249.71 741.458 1249.22 730.769C1248.81 715.308 1251.22 681.625 1251.22 681.625C1251.22 681.625 1256.36 715.242 1256.33 726.519C1256.53 736.143 1257.38 759.411 1257.59 766.428C1261.2 768.856 1265.29 771.433 1268.89 773.944C1264.94 761.248 1261.89 748.285 1259.76 735.153C1257.72 718.795 1256.08 684.139 1256.08 684.139C1262.32 701.121 1266.95 718.665 1269.88 736.533C1270.85 750.303 1272.83 769.599 1273.59 776.942C1277.9 779.719 1282.38 782.519 1286.94 785.329C1281.13 770.386 1276.36 755.052 1272.67 739.438C1270.7 725.615 1269.12 687.432 1269.12 687.432C1274.75 704.657 1279.49 722.164 1283.33 739.882C1284.85 751.537 1290.39 780.327 1291.88 787.854C1296.06 790.36 1300.49 792.901 1304.93 795.358C1302.26 779.166 1298.63 763.152 1294.04 747.402C1289.06 734.179 1292.74 733.587 1289.5 719.254C1286.26 704.922 1280.02 684.288 1280.02 684.288C1280.02 684.288 1294.03 704.466 1295.72 715.388C1297.42 726.311 1305.84 735.794 1307.92 748.873C1310.3 765.356 1311.03 782.039 1310.09 798.672C1314.55 801.046 1319 803.421 1323.46 805.713C1321.22 796.989 1313.16 764.489 1311.68 752.586C1310.04 738.808 1308.62 693.911 1308.62 693.911C1308.62 693.911 1313.1 718.851 1316.13 730.378C1319.17 741.904 1327.87 748.814 1328.08 765.681C1328.51 778.535 1328.34 799.392 1328.23 808.216C1330.66 809.473 1333.09 810.647 1335.63 811.749C1338.16 812.852 1340.67 814.12 1343.51 815.35C1340.81 803.447 1339.02 791.354 1338.14 779.175C1336.9 759.39 1342.85 750.183 1340.06 733.724C1337.29 720.508 1333.45 707.54 1328.59 694.949C1328.59 694.949 1345.59 716.545 1345.72 730.959C1345.85 745.372 1343.47 760.37 1346.47 769.703C1350.12 777.794 1351.62 786.7 1350.82 795.552C1349.82 802.908 1347.91 811.993 1346.87 816.565C1353.01 819.423 1359.65 822.349 1366.52 825.473C1360.96 807.971 1356.67 790.083 1353.7 771.952C1353.03 750.229 1353.84 728.484 1356.12 706.869C1356.12 706.869 1359.94 740.307 1363.32 756.089C1366.7 771.872 1372.22 784.832 1371.51 798.036C1370.95 807.725 1370.49 820.88 1370.31 827.168L1383.9 833.147C1381.7 822.912 1375.89 794.844 1373.5 780.375C1370.66 762.478 1366.88 711.534 1366.88 711.534C1369.34 727.025 1372.86 742.328 1377.4 757.334C1383.97 771.057 1388 785.87 1389.29 801.048C1389.71 813.313 1389.33 829.004 1389.16 835.799C1394.53 838.215 1399.9 840.548 1404.94 842.919C1400.17 826.904 1396.8 810.501 1394.87 793.896C1393.26 771.872 1401.65 720.819 1401.65 720.819C1400.57 735.023 1401.45 749.306 1404.24 763.266C1408.62 780.28 1415.14 806.256 1413.88 820.396C1413.09 829.885 1411.86 840.157 1411.08 845.86L1421.29 850.281C1419.66 836.521 1418.75 822.684 1418.56 808.826C1418.35 786.994 1421.02 720.093 1421.02 720.093C1421.02 720.093 1429.59 767.817 1432.48 787.826C1435.37 807.835 1433.72 818.05 1427.55 852.903C1431.74 854.737 1435.93 856.571 1439.97 858.3C1437.34 847.366 1437.06 835.992 1439.15 824.935C1442.75 798.075 1448.75 771.59 1457.06 745.8C1455.46 759.661 1454.63 773.6 1454.55 787.552C1455.01 800.158 1448.29 849.5 1446.67 861.402C1450.22 862.981 1453.71 864.466 1457.11 865.94C1453.99 855.293 1453.42 844.051 1455.46 833.136C1459.27 810.756 1488.94 783.651 1488.94 783.651C1488.94 783.651 1465.1 812.224 1464.4 825.346C1463.7 838.468 1468.12 839.829 1466.42 849.278C1465.19 855.572 1463.61 861.793 1461.7 867.913C1465.65 869.631 1467.41 870.291 1471.13 871.892C1470.83 859.505 1473.89 847.265 1479.98 836.478C1484.42 827.996 1491.2 820.972 1499.49 816.239C1495.24 824.163 1492.06 832.619 1490.03 841.384C1486.53 852.794 1481.46 863.664 1474.99 873.682C1502.55 885.436 1522.04 893.649 1522.04 893.649L1511.65 899.81C1511.65 899.81 1494.13 892.455 1465.51 879.882C1465.21 893.193 1462.96 906.389 1458.83 919.045C1451.42 935.473 1442.5 951.168 1432.17 965.922C1438.31 954.384 1443.71 942.467 1448.34 930.243C1453.49 919.496 1451.99 909.609 1455.5 896.786Z" fill="#FFFFEC" fill-opacity="0.2"/>
</svg>
